<?xml version="1.0" encoding="UTF-8" standalone="no"?>
<!DOCTYPE svg PUBLIC "-//W3C//DTD SVG 1.1//EN" "http://www.w3.org/Graphics/SVG/1.1/DTD/svg11.dtd">
<svg width="100%" height="100%" viewBox="0 0 331 189" version="1.1" xmlns="http://www.w3.org/2000/svg" xmlns:xlink="http://www.w3.org/1999/xlink" xml:space="preserve" xmlns:serif="http://www.serif.com/" style="fill-rule:evenodd;clip-rule:evenodd;stroke-linejoin:round;stroke-miterlimit:2;">
    <g transform="matrix(1,0,0,1,-1488.19,-2586.61)">
        <g transform="matrix(1.01319,0,0,1,-19.6326,342.52)">
            <rect x="1488.19" y="2244.09" width="326.403" height="188.976" style="fill:rgb(255,68,0);"/>
        </g>
        <g transform="matrix(1,0,0,1,708.8,720.472)">
            <path d="M850.255,1937.01L850.255,2007.87L826.772,2007.87L826.772,1913.39L850.255,1913.39L850.255,1927.74L884.798,1913.39L914.152,1984.25L932.932,1984.25L932.932,1913.39L956.554,1913.39L956.554,1927.74L991.097,1913.39L1020.45,1984.25L1039.23,1984.25L1039.23,1913.39L1062.85,1913.39L1062.85,2007.87L1004.67,2007.87L975.314,1937.01L956.554,1937.01L956.554,2007.87L898.368,2007.87L869.014,1937.01L850.255,1937.01ZM850.255,1901.63L826.772,1911.36L826.772,1889.76L850.255,1889.76L850.255,1901.63ZM1062.99,2009.9L1062.99,2031.5L1039.37,2031.5L1039.37,2019.68L1062.99,2009.9Z" style="fill:white;"/>
        </g>
    </g>
</svg>
